<svg id="Layer_1" data-name="Layer 1" xmlns="http://www.w3.org/2000/svg" viewBox="0 0 300 300"><defs><style>.cls-1{fill:#fdfefe;}.cls-2{fill:#fdfdfd;}.cls-3{fill:#2a2425;}.cls-4{fill:#252c3c;}.cls-5{fill:#a09d9d;}.cls-6{fill:#575759;}.cls-7{fill:#363638;}.cls-8{fill:#ed4036;}.cls-9{fill:#62d9fa;}</style></defs><path class="cls-1" d="M156.29,124.92c6.87,0,13.75.08,20.61.71a2.61,2.61,0,0,1,2.11,1.2c3.35,4.65,6.7,9.27,9.78,14.11a163.08,163.08,0,0,1,8.5,14.27,6.17,6.17,0,0,0,.73,1c2.4,3,2.53,6,.19,9a12.77,12.77,0,0,0-1.36,2.18c-3.22,6.55-7.44,12.49-11.28,18.67-2,3.17-4.41,6.05-6.6,9.09a2.45,2.45,0,0,1-2,1.17,306,306,0,0,1-37.34.34,7.34,7.34,0,0,0-1.65-.22c-3.73.65-5.55-1.51-7.51-4.29-3.58-5.08-7.15-10.16-10.41-15.44-2.46-4-4.71-8.1-7-12.17-1.48-2.6-1.55-4.35,0-7,2.28-4,4.54-8.06,6.86-12.05,2.63-4.51,5.56-8.86,8.61-13.1,1.36-1.9,2.74-3.79,4.07-5.72a2.21,2.21,0,0,1,1.81-1C141.67,125,149,124.86,156.29,124.92Zm22,35.52c.48-4.71-1.9-8.82-4.95-12.54a18.09,18.09,0,0,0-5.08-4.27,24.29,24.29,0,0,0-16.61-3c-9.68,1.76-16.06,7.86-18.45,17.15-1.12,4.36.52,8.21,2.18,12a17.3,17.3,0,0,0,6.34,7.33,24.19,24.19,0,0,0,21.57,3.26C171.33,178,178.88,169.88,178.32,160.44Z"/><path class="cls-1" d="M92.66,224.39a105.41,105.41,0,0,1,1.8-17c.39-1.91,1-3.77,1.46-5.67.18-.8.52-.75,1.17-.61,5.92,1.26,11.88,2.34,17.88,3.2,3.18.45,6.37,1.19,9.55,1.15,2.72,0,4,1.57,5.37,3.24a172,172,0,0,0,16.77,18.2c1,.92,1.48,1.67.06,2.74-3.9,2.93-7.66,6-11.75,8.7-7.81,5.06-15.87,9.65-25.27,11-6.75,1-11.72-.77-14.26-7.85a29.65,29.65,0,0,1-1.71-4.82A69,69,0,0,1,92.66,224.39Z"/><path class="cls-1" d="M266.2,161.09a11.79,11.79,0,0,1-3.91,8c-9.87,9.36-22.14,14.21-34.87,18.09-3.82,1.17-4,1.09-5.09-2.83-1.68-5.89-4.49-11.34-6.6-17.07a12.11,12.11,0,0,0-1.59-2.88c-2.24-3.09-.75-5.89.72-8.6a22.84,22.84,0,0,0,1.34-2.6c2.36-6.16,5.24-12.12,6.82-18.57.24-1,.77-1.22,1.78-.9a143.38,143.38,0,0,1,23.76,9.36,57.61,57.61,0,0,1,13.85,9.75A11.91,11.91,0,0,1,266.2,161.09Z"/><path class="cls-1" d="M98.77,161c-.21.57-.4,1.16-.63,1.72-2.27,5.53-4.93,10.89-6.9,16.56-.91,2.6-2,5.16-2.73,7.81-.28,1-.68,1.2-1.74.9a129.39,129.39,0,0,1-15.06-5.2,89.77,89.77,0,0,1-15.58-8.13,35.45,35.45,0,0,1-8.83-8.09c-2.93-3.9-2.21-8.89.85-12.35,7.37-8.32,17.11-12.58,27.07-16.55,3.73-1.49,7.57-2.69,11.42-3.84,1.2-.35,1.45,0,1.74,1a152.15,152.15,0,0,0,6.1,16.26c1.17,2.82,2.47,5.63,3.75,8.42C98.44,160,98.58,160.48,98.77,161Z"/><path class="cls-1" d="M218.87,96.6a122.42,122.42,0,0,1-2.73,23c-.21,1-.56,1.36-1.75,1.09a252.24,252.24,0,0,0-29.31-4.58,1.7,1.7,0,0,1-1.41-.73c-1.22-1.88-2.93-3.35-4.26-5.11-3.28-4.36-7.3-8-10.89-12.12-1.16-1.32-2.56-2.47-3.78-3.78-.77-.81-.61-1.28.14-1.94a106.78,106.78,0,0,1,11-8.41,86.48,86.48,0,0,1,10.33-6.14c6.09-3,12.29-5.69,19.22-5.61,6,.07,8.31,2.39,10.7,7.6S218.79,91,218.87,96.6Z"/><path class="cls-1" d="M92.58,95.5a35.54,35.54,0,0,1,1.64-12.62c1.17-3.35,2.36-6.88,5.78-9s6.84-1.71,10.29-1.19c6.31,1,12.07,3.57,17.59,6.69a105.15,105.15,0,0,1,17.77,12.33l.28.24c2.08,1.46,2,1.34,0,3.16-2.29,2.15-4.35,4.54-6.52,6.81-4.08,4.28-7.8,8.87-11.6,13.38a2.4,2.4,0,0,1-1.8.77,246.75,246.75,0,0,0-28.73,4.57c-1.13.25-1.39-.12-1.65-1A85.34,85.34,0,0,1,92.58,95.5Z"/><path class="cls-1" d="M218.91,224.92c.09,6-.11,12-2.76,17.44s-5.23,7.2-11.4,7c-6.79-.24-12.83-2.84-18.78-5.85-6.65-3.35-12.59-7.74-18.58-12.09-3.59-2.61-3.74-2.75-.7-5.8,5.07-5.11,9.8-10.53,14.58-15.91a4,4,0,0,0,.69-.87c1.19-2.67,3.46-3.26,6.11-3.5a196.8,196.8,0,0,0,26-4.16c1.59-.37,2,.05,2.29,1.52A102.81,102.81,0,0,1,218.91,224.92Z"/><path class="cls-1" d="M169.41,115c-9.13-.32-17.88-.5-26.89,0a16.79,16.79,0,0,1,3.1-4.25c2.75-3,5.63-5.84,8.46-8.76,1.14-1.18,2-1.35,3.37.06,3.71,3.76,7.21,7.72,10.92,11.47A15.08,15.08,0,0,1,169.41,115Z"/><path class="cls-1" d="M142.37,206.75a221.54,221.54,0,0,0,27.27,0c-2.14,2.46-3.88,4.57-5.74,6.57-2.1,2.24-4.37,4.33-6.45,6.6-.93,1-1.58,1.2-2.71.3a48.67,48.67,0,0,1-4.29-4.33A76,76,0,0,1,142.37,206.75Z"/><path class="cls-1" d="M192.89,194.39c2.88-4.49,5.81-8.74,8.47-13.16,1.37-2.26,2.74-4.52,4-6.86.17-.33.21-1,.79-.81a1.32,1.32,0,0,1,.85.91c.57,1.63,1.28,3.22,1.81,4.86,1.13,3.58,3.05,6.86,3.89,10.55.2.86.14,1.24-.77,1.43-6.11,1.24-12.23,2.41-18.42,3.21A2.42,2.42,0,0,1,192.89,194.39Z"/><path class="cls-1" d="M105.48,148.51a86.69,86.69,0,0,1-4.84-12,25.5,25.5,0,0,0-1.77-4.61c-.28-.57-.51-1.14.52-1.35,6.34-1.27,12.69-2.47,19.64-3.35C114,134.22,109.8,141.21,105.48,148.51Z"/><path class="cls-1" d="M205.94,148.37c-3.87-7.38-8.55-14.05-13.17-21,2.21-.16,4.21.46,6.22.75,4,.58,8,1.46,12,2.16,1.41.24,2,.74,1.4,2.25-1.82,4.77-3.57,9.56-5.31,14.36C206.87,147.48,206.35,147.75,205.94,148.37Z"/><path class="cls-1" d="M118.65,194.32a161.93,161.93,0,0,1-19.11-3.08c-1.05-.23-.86-.74-.56-1.28,1.44-2.62,1.88-5.58,3-8.31s2.27-5.39,3.47-8.22c2.23,3.66,4.29,7.23,6.54,10.67S116.25,191,118.65,194.32Z"/><path class="cls-2" d="M299.26,150.11q0,73.95,0,147.89c0,1.25-.28,1.53-1.53,1.53q-147.88,0-295.77,0c-1.26,0-1.54-.28-1.54-1.53Q.51,150.12.45,2.23C.45,1,.73.7,2,.7q147.89,0,295.77,0c1.25,0,1.53.28,1.53,1.53Q299.23,76.17,299.26,150.11ZM149.84,8.94A138.9,138.9,0,0,0,10.53,147.46C9.8,225,72.54,287.79,149.34,287.85c77.23.06,137.19-60.84,139.78-133.28C292.18,69.23,224.13,8.52,149.84,8.94Z"/><path class="cls-3" d="M149.84,8.94A138.9,138.9,0,0,0,10.53,147.46C9.8,225,72.54,287.79,149.34,287.85c77.23.06,137.19-60.84,139.78-133.28C292.18,69.23,224.13,8.52,149.84,8.94ZM14.51,141.38A135,135,0,0,1,25.8,93.61,132.91,132.91,0,0,1,49.32,57.4c.34-.38.52-1,1.23-.94-.09-.55.24-.8.69-1a.45.45,0,0,1,.45-.41,66.9,66.9,0,0,1,14.3-13c1.4-1.79,3.35-2.89,5.15-4.16a132.82,132.82,0,0,1,61.14-24.07c28.09-3.58,55,.77,80,14.14C250.5,48.4,274.1,80.08,283,122.61a138.6,138.6,0,0,1,2.29,18.17c.11,1.53-.31,1.66-1.65,1.11-10.3-4.19-20.35-9-30.79-12.85a149.84,149.84,0,0,0-22.25-6.38,2.5,2.5,0,0,1-2.23-2.2,48,48,0,0,0-89.92-8.22c-.81,1.71-1.66,2.51-3.64,2.54-5.56.1-11.1.56-16.63,1.06a278.83,278.83,0,0,0-36.69,5.86c-22.29,5.07-43.72,12.81-65,21.12C14.44,143.63,14.39,143.63,14.51,141.38Zm259.26,61.85c.05,0,.22-.9.44-.9C274.15,202.33,274,203.23,273.77,203.23Zm.54-.44c.05,0,.22-.9.43-.9C274.69,201.89,274.52,202.79,274.31,202.79Zm7.54-24.26a142.8,142.8,0,0,1-4.09,14.09,125.6,125.6,0,0,1-11,23.69c-.57.94-1.26,1.81-1.9,2.71-.42,1.72-1.61,3-2.54,4.41A134.79,134.79,0,0,1,159.43,283c-3.21.24-6.44.42-9.63.38a139.4,139.4,0,0,1-30.7-3.51,135.94,135.94,0,0,1-101.46-101c-.26-1.09-.18-1.71,1-2.16a408.74,408.74,0,0,1,41.2-13.49,3.85,3.85,0,0,1,.49-.07c6.55-2,13.22-3.46,19.91-4.86a337.76,337.76,0,0,1,42.35-6c4.54-.35,9.1-.48,13.63-.82,1.28-.1,1.59.63,2,1.5,6.39,13.39,16.62,22.45,31,26.34,15.89,4.32,30.37,1,43.23-9.27A42.17,42.17,0,0,0,221.54,160a2.09,2.09,0,0,1,2.59-1.08,340,340,0,0,1,51.22,15.32c1.77.67,3.5,1.46,5.3,2C282.05,176.59,282.15,177.34,281.85,178.53Zm2.4-5.38c-.34,1.42-1.1,1-2,.71-8.32-3.25-16.72-6.32-25.22-9.08a344.83,344.83,0,0,0-34.23-9.07,2.18,2.18,0,0,0-2.62,1.11,43.91,43.91,0,0,1-31.55,20.88c-12.82,2.05-24.33-1.23-34.59-8.94a43.71,43.71,0,0,1-13.77-17.9c-.19-.45-.27-1-.43-1.42a1.42,1.42,0,0,0-1.59-1.15c-3.32.15-6.65.18-10,.39s-6.83.57-10.24.94c-3.83.41-7.63,1-11.44,1.46q-9.55,1.14-19,2.9c-5.88,1.09-11.76,2.19-17.55,3.7-7.29,1.89-14.52,4-21.79,6-1.92.52-3.69,1.53-5.71,1.67-2.65,1.25-5.51,1.92-8.26,2.9-5.2,1.87-10.48,3.55-15.6,5.66-2.17.89-2.47.6-2.89-1.69s-1-4.74-1.3-7.15c-.54-4.46-.57-8.93-.73-13.41-.11-3.14.14-5.48,3.86-6.34,2.21-.52,4.28-1.76,6.53-2.36,4.76-2.13,9.71-3.75,14.6-5.55,4.52-1.66,9.13-3.09,13.7-4.61,6.2-2.07,12.47-3.89,18.81-5.52,9.72-2.49,19.5-4.68,29.4-6.26,5.78-.92,11.61-1.61,17.45-2.15q10-.92,20.07-1.25a1.6,1.6,0,0,0,1.64-1.27,43.46,43.46,0,0,1,10.38-15.73A45.23,45.23,0,0,1,209,96.73a43.66,43.66,0,0,1,16.71,25.54,3.48,3.48,0,0,0,3.28,3.11,156.73,156.73,0,0,1,32.3,10.22q11.63,5,23.32,9.83a2.41,2.41,0,0,1,1.63,2.41C286.5,156.35,286.2,164.81,284.25,173.15Z"/><path class="cls-4" d="M66,42.05c1.4-1.79,3.35-2.89,5.15-4.16a132.82,132.82,0,0,1,61.14-24.07c28.09-3.58,55,.77,80,14.14C250.5,48.4,274.1,80.08,283,122.61a138.6,138.6,0,0,1,2.29,18.17c.11,1.53-.31,1.66-1.65,1.11-10.3-4.19-20.35-9-30.79-12.85a149.84,149.84,0,0,0-22.25-6.38,2.5,2.5,0,0,1-2.23-2.2,48,48,0,0,0-89.92-8.22c-.81,1.71-1.66,2.51-3.64,2.54-5.56.1-11.1.56-16.63,1.06a278.83,278.83,0,0,0-36.69,5.86c-22.29,5.07-43.72,12.81-65,21.12-2,.81-2.1.81-2-1.44A135,135,0,0,1,25.8,93.61,132.91,132.91,0,0,1,49.32,57.4c.35-.38.52-1,1.24-.94,0,.74-.57,1.18-.91,1.72a37.88,37.88,0,0,0-6.24,17.91A20.23,20.23,0,0,0,57.69,97.32a29.18,29.18,0,0,0,13,1.05C83.36,96.68,93.58,90.47,102,81.1a40.41,40.41,0,0,0,10.48-21.58c1.7-12-5.19-21.79-17-24.11-6.92-1.35-13.59-.19-20.13,2.17A82.72,82.72,0,0,0,66,42.05Z"/><path class="cls-2" d="M60.33,163.14c6.55-2,13.22-3.46,19.91-4.86a337.76,337.76,0,0,1,42.35-6c4.54-.35,9.1-.48,13.63-.82,1.28-.1,1.59.63,2,1.5,6.39,13.39,16.62,22.45,31,26.34,15.89,4.32,30.37,1,43.23-9.27A42.17,42.17,0,0,0,221.54,160a2.09,2.09,0,0,1,2.59-1.08,340,340,0,0,1,51.22,15.32c1.77.67,3.5,1.46,5.3,2,1.4.41,1.5,1.16,1.2,2.35a142.8,142.8,0,0,1-4.09,14.09,125.6,125.6,0,0,1-11,23.69c-.57.94-1.26,1.81-1.9,2.71-.59-.16-.92.26-1.29.58-1.75,1.54-3.53,3.05-5.26,4.61a118.81,118.81,0,0,1-30,19.53,121,121,0,0,1-49.73,10.93,117.23,117.23,0,0,1-22-1.91,120.84,120.84,0,0,1-91.64-75.69C63.09,172.5,61.78,167.8,60.33,163.14Z"/><path class="cls-5" d="M60.33,163.14c1.45,4.66,2.76,9.36,4.52,13.93a121,121,0,0,0,91.64,75.69,117.23,117.23,0,0,0,22,1.91,121,121,0,0,0,49.73-10.93,118.81,118.81,0,0,0,30-19.53c1.73-1.56,3.51-3.07,5.26-4.61.37-.32.7-.74,1.29-.58-.42,1.72-1.61,3-2.54,4.41A134.79,134.79,0,0,1,159.43,283c-3.21.24-6.44.42-9.63.38a139.4,139.4,0,0,1-30.7-3.51,135.94,135.94,0,0,1-101.46-101c-.26-1.09-.18-1.71,1-2.16a408.74,408.74,0,0,1,41.2-13.49A3.85,3.85,0,0,1,60.33,163.14Z"/><path class="cls-6" d="M24.16,142.92c4.76-2.13,9.71-3.75,14.6-5.55,4.52-1.66,9.13-3.09,13.7-4.61,6.2-2.07,12.47-3.89,18.81-5.52,9.72-2.49,19.5-4.68,29.4-6.26,5.78-.92,11.61-1.61,17.45-2.15q10-.92,20.07-1.25a1.6,1.6,0,0,0,1.64-1.27,43.46,43.46,0,0,1,10.38-15.73A45.23,45.23,0,0,1,209,96.73a43.66,43.66,0,0,1,16.71,25.54,3.48,3.48,0,0,0,3.28,3.11,156.73,156.73,0,0,1,32.3,10.22q11.63,5,23.32,9.83a2.41,2.41,0,0,1,1.63,2.41c.26,8.51,0,17-2,25.31-.34,1.42-1.1,1-2,.71-8.32-3.25-16.72-6.32-25.22-9.08a344.83,344.83,0,0,0-34.23-9.07,2.18,2.18,0,0,0-2.62,1.11,43.91,43.91,0,0,1-31.55,20.88c-12.82,2.05-24.33-1.23-34.59-8.94a43.71,43.71,0,0,1-13.77-17.9c-.19-.45-.27-1-.43-1.42a1.43,1.43,0,0,0-1.59-1.15c-3.32.15-6.65.18-10,.39s-6.83.57-10.24.94c-3.83.41-7.63,1-11.44,1.46q-9.55,1.14-19,2.9c-5.88,1.09-11.76,2.2-17.55,3.7-7.29,1.89-14.52,4-21.79,6-1.92.52-3.69,1.53-5.71,1.67a4,4,0,0,0-.73-.34A23.83,23.83,0,0,1,24.16,142.92ZM183,98.53c-18.16-.49-33.42,15.07-33.31,33.05.12,19.1,14.6,33.93,33.25,34,19,0,33.19-14.9,33.52-33.54C216.77,113.7,201.22,98,183,98.53Z"/><path class="cls-2" d="M66,42.05a82.72,82.72,0,0,1,9.3-4.47c6.54-2.36,13.21-3.52,20.13-2.17,11.85,2.32,18.74,12.12,17,24.11A40.41,40.41,0,0,1,102,81.1c-8.4,9.37-18.62,15.58-31.27,17.27a29.18,29.18,0,0,1-13-1.05A20.23,20.23,0,0,1,43.41,76.09a37.88,37.88,0,0,1,6.24-17.91c.34-.54.93-1,.91-1.72v0a.89.89,0,0,0,.71-1l0,0c.3,0,.39-.18.45-.42A66.9,66.9,0,0,1,66,42.05Z"/><path class="cls-7" d="M24.16,142.92A23.83,23.83,0,0,0,41.82,165a4,4,0,0,1,.73.34c-2.65,1.25-5.51,1.92-8.26,2.9-5.2,1.87-10.48,3.55-15.6,5.66-2.17.89-2.47.6-2.89-1.69s-1-4.74-1.3-7.15c-.54-4.46-.57-8.93-.73-13.41-.11-3.14.14-5.48,3.86-6.34C19.84,144.76,21.91,143.52,24.16,142.92Z"/><path class="cls-8" d="M51.26,55.49a.89.89,0,0,1-.71,1C50.44,55.9,50.79,55.65,51.26,55.49Z"/><path class="cls-8" d="M51.69,55.09c-.06.24-.15.44-.45.42A.44.44,0,0,1,51.69,55.09Z"/><path class="cls-3" d="M183,98.53C201.22,98,216.77,113.7,216.44,132c-.33,18.64-14.51,33.57-33.52,33.54-18.65,0-33.13-14.87-33.25-34C149.56,113.6,164.82,98,183,98.53Zm-30.44,33.06c-.22,16.55,13.44,30.75,29.67,31a30.66,30.66,0,1,0-29.67-31Z"/><path class="cls-2" d="M152.54,131.59a30.45,30.45,0,1,1,29.67,31C166,162.34,152.32,148.14,152.54,131.59Zm54,.27a23.48,23.48,0,0,0-47-.2c-.11,12.18,10,24,23.39,24A24,24,0,0,0,206.51,131.86Z"/><path class="cls-7" d="M206.51,131.86a24,24,0,0,1-23.57,23.78c-13.34,0-23.5-11.8-23.39-24a23.48,23.48,0,0,1,47,.2Zm-1.92,0a21.57,21.57,0,0,0-43.13-.16c-.12,11.35,9.85,22.07,21.58,22.06S204.7,143.13,204.59,131.83Z"/><path class="cls-2" d="M204.59,131.83c.11,11.3-9.94,21.9-21.55,21.9s-21.7-10.71-21.58-22.06a21.57,21.57,0,0,1,43.13.16Z"/><path class="cls-9" d="M205.1,131.4c.54,10-6.79,18.53-14.58,21.08a22,22,0,0,1-21-3.45,18,18,0,0,1-6.16-7.74c-1.61-4-3.21-8.12-2.12-12.73,2.33-9.81,8.53-16.26,17.93-18.12a22,22,0,0,1,16.14,3.19,17.85,17.85,0,0,1,4.94,4.51C203.25,122.08,205.56,126.42,205.1,131.4Z"/><path class="cls-9" d="M281.22,180.53c0-.14,0-.28-.07-.42-.15.12-.15.36-.15.89a35.86,35.86,0,0,1-.79,4.18"/><path class="cls-9" d="M280.61,177.31A55,55,0,0,0,276,164.94a115,115,0,0,0-16.4-25.13c-.78-.88-.73-1.33,0-2.12,2.54-2.67,5.1-5.31,7.45-8.18a125.39,125.39,0,0,0,8.61-11.64,72.82,72.82,0,0,0,4.55-8.15,1.54,1.54,0,0,1,0-.17c-.87-3.8-2.65-7.28-3.89-11a28.85,28.85,0,0,0-1.9-4.19,15.82,15.82,0,0,1-.41,2c-3.6,12.89-11.31,22.55-19.87,31.51-2.56,2.69-2.72,2.68-5.51-.52-4.2-4.82-9.1-8.75-13.57-13.23a13.14,13.14,0,0,0-2.68-2c-3.31-2-3.43-5.21-3.52-8.36a25.13,25.13,0,0,0-.16-3c-1-6.75-1.51-13.54-3.3-20.23-.28-1,0-1.47,1-1.59a122.75,122.75,0,0,1,23.91-1.17,53.91,53.91,0,0,1,16,3.35,13.06,13.06,0,0,1,1.52.71c-.36-.72-.68-1.45-1-2.18-.1-.24-.21-.47-.31-.71a17.76,17.76,0,0,1-.88-1.81l-.06-.13h0c.05.12.1.28,0,0a.53.53,0,0,1-.06-.1l-.12-.2-.82-1.27-.4-.59-.19-.27c-.32-.46-.65-.92-1-1.39a12.76,12.76,0,0,1-1.29-2.42l-.11-.14a5.11,5.11,0,0,1-1.17-2,77.92,77.92,0,0,0-10.57-1.41,118.55,118.55,0,0,0-26.14,1.53c-.74.12-1.06-.08-1.28-.9-.59-2.22-1.11-4.48-1.78-6.66a123.37,123.37,0,0,0-8.14-19.91c-2.77-5-5.93-10.87-10.95-15.5a34.2,34.2,0,0,0-9.16-6.48,17.32,17.32,0,0,0-7.12-1.52c-6.35,0-11.41,3-15.95,7-5.26,4.7-9.29,10.58-12.78,16.88a110.67,110.67,0,0,0-8.61,19.82c-.53,1.66-1.38,1.84-2.86,1.38a113.08,113.08,0,0,0-24.28-4.79,77.49,77.49,0,0,0-8.31-.27,49,49,0,0,1-1.21,6.35c-.29,1.08-.67,2.13-1,3.21a7.88,7.88,0,0,1-.36,1.1,55.8,55.8,0,0,1,11.18.13,98.62,98.62,0,0,1,20.43,4.13l.35.11c2.4.5,2.25.43,1.54,3-.85,3-1.39,6.07-2.08,9.11-1.29,5.7-2.14,11.55-3.08,17.37a2.06,2.06,0,0,1-1.1,1.47,201.61,201.61,0,0,0-21.32,16.29c-.79.71-1.19.47-1.84-.29A102.12,102.12,0,0,1,100,98.46,44.93,44.93,0,0,1,95.55,87.3c-2.83,2.16-5.6,4.52-8.89,5.94.1.36.21.72.31,1.09a47.2,47.2,0,0,0,5,11.2c2.08,3.56,3.94,7.23,6.59,10.48s4.93,7.14,7.69,10.48c.83,1,1,1.78,0,2.69A114.27,114.27,0,0,0,94.78,142.4c-4.73,6.37-9,13-11.51,21a56,56,0,0,0-1.51,6.2,24.27,24.27,0,0,0,1.44,13.9c1.64,4,4.91,6.36,8,8.86a11.46,11.46,0,0,0,2.38,1.5A52.88,52.88,0,0,0,105.88,198a75.84,75.84,0,0,0,12.1,1.41,114.93,114.93,0,0,0,23.35-1.57c1.28-.23,1.95,0,2.36,1.67a151.66,151.66,0,0,0,5.72,17.05,60.8,60.8,0,0,0,9.3,17.17c3.17,3.91,6,7.91,10.21,10.82,6.5,4.56,12.87,5.31,19.32,2.59,8.1-3.41,13.53-10.13,18.31-17.52a99.34,99.34,0,0,0,9.55-19.23c.8-2.13,1.68-4.22,2.48-6.35.25-.65.51-1.06,1.27-.74a30.89,30.89,0,0,0,3.82,1,112.68,112.68,0,0,0,19.73,3.82c8.76.92,17.29.73,25.32-2.34a21.78,21.78,0,0,0,5.12-2.79c.08-.26.21-.72.36-.73.24-.77.49-1.55.77-2.33a2.17,2.17,0,0,1,0-.25,4.22,4.22,0,0,1,.44-1.1c2.08-5.59,4.76-11.3,5.55-17.65,0-.53,0-.77.15-.89C281,179.17,280.82,178.24,280.61,177.31ZM122.3,128.45c4.58-3.84,9.2-7.61,14.46-11.34-.72,8.65-.84,17-.88,25.61a99,99,0,0,1-9.7-9.21,30.83,30.83,0,0,0-3.65-3.58C122,129.52,121.56,129.08,122.3,128.45Zm17.17,59.07a112.19,112.19,0,0,1-14.8,1.42,80.53,80.53,0,0,1-16.64-1.1A35,35,0,0,1,96.94,184,11.26,11.26,0,0,1,91.73,172c2-10.86,8-18.93,14.21-26.81a110.48,110.48,0,0,1,7.51-8.36c.81-.84,1.2-.58,1.92.25a171.45,171.45,0,0,0,12.77,12.67c2.31,2.16,4.71,4.25,7.1,6.33.38.33.72.71,1.13,1.11.1.63.22,1.26.3,1.89.8,6.13,1.19,12.25,2.28,18.39.51,2.81.87,5.65,1.51,8.45C140.69,187,140.49,187.35,139.47,187.52ZM215.66,83c.8,5.23,1.66,10.45,2.53,15.67a8.71,8.71,0,0,1-.23,1.9c-6.69-5.3-13.71-9.59-20.83-14.2,1.73-1.07,3.67-1.32,5.44-1.89,3.57-1.14,7.25-2,10.86-3C214.71,81.16,215.41,81.39,215.66,83ZM157.59,65.33a102.32,102.32,0,0,1,5-12.49,78.26,78.26,0,0,1,5.51-10.06c3.53-5.37,7.32-10.47,13-13.29,5-2.45,7.94-1.23,12.38,2.65s7.48,9.35,10.24,14.59a146.8,146.8,0,0,1,8.76,22.63c.32,1.06.19,1.51-.91,1.76a203,203,0,0,0-26.16,7.95,1.54,1.54,0,0,1-1.51-.09c-1.89-1.25-4-1.91-5.93-3-4.76-2.71-9.81-4.48-14.7-6.79-1.58-.76-3.27-1.25-4.9-2C157.39,66.78,157.3,66.27,157.59,65.33Zm-6.94,25.29c.82-3.94,1.81-7.83,2.73-11.74.37-1.58,1-2.09,2.78-1.35,4.84,2,9.59,4.22,14.43,6.18a16.09,16.09,0,0,1,1.53.92,227.1,227.1,0,0,0-22,11.27A17.59,17.59,0,0,1,150.65,90.62Zm-.25,93.64c-.08-3-1.14-6-1.53-9s-.72-6-1.09-9.15c3.58,2.5,7,5,10.45,7.26s6.77,4.65,10.34,6.78a129.92,129.92,0,0,1-17.11,5.11C150.5,185.44,150.41,184.88,150.4,184.26Zm58,17.25c-1.79,4.37-3.37,8.85-5.45,13.05-4,8-8.36,15.67-15.39,20.88-5.05,3.74-10,4.18-15.42-1.39a34.14,34.14,0,0,1-3.7-3.8,81.92,81.92,0,0,1-6.78-11.11,123.71,123.71,0,0,1-6.65-16.64c-.59-1.95-1-3.95-1.52-5.91-.23-.83.07-.92.67-1.07,5.44-1.29,10.84-2.77,16.15-4.47,2.82-.9,5.78-1.55,8.37-2.91,2.2-1.16,4-.22,5.93.78a172.83,172.83,0,0,0,22.43,10C208.34,199.41,209.1,199.91,208.45,201.51ZM214.66,179c-.64,3-1.5,5.89-2.11,8.88-.28,1.33-.72,1.78-2.08,1.41a47.2,47.2,0,0,1-5.58-2.26,78.11,78.11,0,0,1-11-5.17,178,178,0,0,0,22.3-11.4C215.64,173.64,215.23,176.35,214.66,179Zm4.7-34.54c-.09,3.8-.71,7.52-1.05,11.28a2.2,2.2,0,0,1-1.05,1.92,243,243,0,0,1-30.37,15.91c-.47.2-1.07.19-1.45.49-2.74,2.17-5.26.91-8.2-.88-5.35-3.26-10.71-6.53-15.9-10.11-3.91-2.7-7.73-5.61-11.57-8.46a7.09,7.09,0,0,1-3.39-6.53c0-4.72-.14-9.45-.15-14.16,0-5.32.3-10.62.77-15.87.2-2.34.43-4.69.59-7.05a2,2,0,0,1,1-1.73,178.82,178.82,0,0,1,17.56-9.86,171.49,171.49,0,0,1,17.19-8,2.34,2.34,0,0,1,2.3.24c5,3,9.92,5.88,14.76,9.13,4.67,3.14,9.36,6.2,13.77,9.81a6.93,6.93,0,0,0,1.1.68c3.4,1.8,5,4.59,4.46,8.34a13.32,13.32,0,0,0-.07,2.6C220.15,129.73,219.54,137.07,219.36,144.45Zm10.55-19.24c0-.39-.29-1,.27-1.09a1.34,1.34,0,0,1,1.12.49c1.25,1.29,2.59,2.48,3.81,3.81,2.64,2.87,5.77,5.14,8.23,8.25.57.72.71,1.11.06,1.66-4.41,3.72-8.86,7.37-13.54,10.7a1.58,1.58,0,0,1-.55.13c.21-5.41.57-10.61.64-15.86C230,130.61,230,127.92,229.91,125.21Zm35.4,70.46c-5.67,2.61-11.85,2.7-18.16,2.37-7-.36-14-2-21-3.56-4.19-.94-4.38-1-3.36-5.14,1.71-6.91,3-14,4.31-21a4.18,4.18,0,0,0,.15-1.11c-.31-3,1.27-4.5,3.33-5.83a158,158,0,0,0,19.24-14.75c1.13-1,1.65-.79,2.61.47a122.51,122.51,0,0,1,12.75,19.76c2.93,5.55,5.65,11.29,6.08,17.48S270.46,193.3,265.31,195.67Z"/></svg>